<?xml version="1.0" encoding="UTF-8" standalone="no"?>
<!-- Created with Inkscape (http://www.inkscape.org/) -->

<svg
   xmlns:dc="http://purl.org/dc/elements/1.1/"
   xmlns:cc="http://creativecommons.org/ns#"
   xmlns:rdf="http://www.w3.org/1999/02/22-rdf-syntax-ns#"
   xmlns:svg="http://www.w3.org/2000/svg"
   xmlns="http://www.w3.org/2000/svg"
   xmlns:sodipodi="http://sodipodi.sourceforge.net/DTD/sodipodi-0.dtd"
   xmlns:inkscape="http://www.inkscape.org/namespaces/inkscape"
   width="1993.3845"
   height="396.25525"
   viewBox="0 0 527.4163 104.84254"
   version="1.1"
   id="svg8"
   inkscape:version="0.92.2 5c3e80d, 2017-08-06"
   sodipodi:docname="presla-logo-white.svg">
  <defs
     id="defs2" />
  <sodipodi:namedview
     id="base"
     pagecolor="#ffffff"
     bordercolor="#666666"
     borderopacity="1.0"
     inkscape:pageopacity="0.0"
     inkscape:pageshadow="2"
     inkscape:zoom="0.35"
     inkscape:cx="1836.2251"
     inkscape:cy="-16.706346"
     inkscape:document-units="px"
     inkscape:current-layer="flowRoot3758"
     showgrid="false"
     units="px"
     fit-margin-top="0"
     fit-margin-left="0"
     fit-margin-right="0"
     fit-margin-bottom="0"
     inkscape:window-width="1920"
     inkscape:window-height="1025"
     inkscape:window-x="0"
     inkscape:window-y="0"
     inkscape:window-maximized="1" />
  <metadata
     id="metadata5">
    <rdf:RDF>
      <cc:Work
         rdf:about="">
        <dc:format>image/svg+xml</dc:format>
        <dc:type
           rdf:resource="http://purl.org/dc/dcmitype/StillImage" />
        <dc:title></dc:title>
        <cc:license
           rdf:resource="http://creativecommons.org/licenses/by-nc/4.0/" />
      </cc:Work>
      <cc:License
         rdf:about="http://creativecommons.org/licenses/by-nc/4.0/">
        <cc:permits
           rdf:resource="http://creativecommons.org/ns#Reproduction" />
        <cc:permits
           rdf:resource="http://creativecommons.org/ns#Distribution" />
        <cc:requires
           rdf:resource="http://creativecommons.org/ns#Notice" />
        <cc:requires
           rdf:resource="http://creativecommons.org/ns#Attribution" />
        <cc:prohibits
           rdf:resource="http://creativecommons.org/ns#CommercialUse" />
        <cc:permits
           rdf:resource="http://creativecommons.org/ns#DerivativeWorks" />
      </cc:License>
    </rdf:RDF>
  </metadata>
  <g
     inkscape:label="Layer 1"
     inkscape:groupmode="layer"
     id="layer1"
     transform="translate(-0.41579356,-192.03599)">
    <path
       id="path3747"
       d="m 50.606622,192.03599 c -3.312577,0 -7.076939,1.45537 -9.285325,5.27011 -2.40916,4.01522 -3.136992,9.13463 -1.12908,13.5514 0,0.40216 -0.87868,-0.37637 -0.87868,1.63125 -0.402159,2.00761 0.828599,4.81832 1.631097,6.02297 0.40216,0.40217 1.229242,0.85288 1.631248,1.25505 0,0 0.8286,3.56358 3.638858,6.7757 0.402159,2.40916 -2.384121,4.01536 -2.384121,4.01536 -8.030435,1.20497 -15.33319,5.24491 -16.9394,9.66168 h 51.445718 c -1.606208,-4.41707 -8.908964,-8.45747 -16.939399,-9.66197 0,0 -3.613817,-0.8028 -2.00776,-4.01538 2.00776,-2.40916 3.237304,-5.59624 3.638857,-6.39934 0,0 3.262497,-2.43419 3.262497,-5.64646 0,-3.61368 -0.878679,-3.63886 -0.878679,-3.63886 1.20496,-3.61367 1.606056,-17.16523 -8.030588,-15.55916 -0.602481,-1.80683 -3.463122,-3.26235 -6.775699,-3.26235 z m 40.152632,32.1222 c -3.326387,0 -6.022826,2.69645 -6.022826,6.02282 0,3.32639 2.696439,6.02299 6.022826,6.02299 1.14274,0 2.226293,-0.32477 3.136993,-0.87868 0.55847,0.67228 1.000087,1.35672 1.380999,2.13311 0.861987,1.75827 1.238347,3.98152 1.381,6.7757 H 4.4310108 c -2.4091607,3.1e-4 -4.01521724,1.60651 -4.01521724,4.01567 v 8.03044 l 8.03043574,12.04581 h 9.2853227 l -1.631096,-9.6617 c -0.40216,-1.20496 0.8028,-2.38411 2.007608,-2.38411 h 69.012333 c 1.20496,0 2.409161,1.17915 2.007609,2.38411 l -1.631097,9.6617 h 9.285323 l 8.030438,-12.04581 v -8.03044 c 0,-2.40916 -1.60607,-4.01536 -4.01523,-4.01536 h -0.12141 c -0.1639,-3.27738 -0.678347,-6.07686 -1.882087,-8.53246 -0.619177,-1.26414 -1.434118,-2.44588 -2.384125,-3.51335 0.215496,-0.61917 0.376361,-1.31424 0.376361,-2.00762 0,-3.32637 -2.696592,-6.02282 -6.022979,-6.02282 z m -67.8831,36.13743 c -1.20496,0 -2.007609,1.17915 -2.007609,2.38395 l 4.893595,33.75345 h 53.327821 l 5.269955,-33.75345 c 0.40216,-1.20495 -0.802802,-2.38395 -2.007609,-2.38395 z"
       inkscape:connector-curvature="0"
       style="stroke-width:4.01526833;fill:#ffffff;fill-opacity:1" />
    <g
       aria-label="Presla"
       transform="matrix(1.4939538,0,0,1.4939538,-490.55123,161.99935)"
       style="font-style:normal;font-weight:normal;font-size:40px;line-height:1.25;font-family:sans-serif;letter-spacing:0px;word-spacing:0px;fill:#242ffe;fill-opacity:1;stroke:none"
       id="flowRoot3758">
      <path
         d="m 453.24805,40.877115 q 0,4.265625 -1.3125,8.203125 -1.26563,3.9375 -4.21875,6.984375 -2.95313,3 -7.82813,4.828125 -4.82812,1.78125 -11.95312,1.78125 h -7.03125 v 26.671875 h -8.71875 v -68.53125 h 16.96875 q 6.28125,0 10.82812,1.359375 4.54688,1.3125 7.5,3.890625 2.95313,2.53125 4.35938,6.28125 1.40625,3.75 1.40625,8.53125 z M 420.9043,55.26774 h 6.04687 q 4.35938,0 7.59375,-0.75 3.28125,-0.75 5.39063,-2.390625 2.15625,-1.6875 3.23437,-4.3125 1.07813,-2.671875 1.07813,-6.46875 0,-6.65625 -3.84375,-9.84375 -3.84375,-3.234375 -12,-3.234375 h -7.5 z"
         style="font-style:normal;font-variant:normal;font-weight:normal;font-stretch:normal;font-size:96px;font-family:'Droid Sans';-inkscape-font-specification:'Droid Sans';fill:#ffffff;fill-opacity:1"
         id="path844" />
      <path
         d="m 488.5918,36.939615 q 1.35937,0 3.04687,0.140625 1.6875,0.09375 2.90625,0.328125 l -1.125,7.875 q -1.3125,-0.234375 -2.71875,-0.375 -1.35937,-0.1875 -2.57812,-0.1875 -2.95313,0 -5.39063,1.21875 -2.4375,1.171875 -4.21875,3.421875 -1.73437,2.203125 -2.71875,5.34375 -0.9375,3.09375 -0.9375,6.890625 v 27.75 h -8.53125 v -51.46875 h 6.9375 l 1.03125,9.421875 h 0.375 q 1.17188,-2.015625 2.48438,-3.890625 1.35937,-1.875 3,-3.28125 1.6875,-1.453125 3.75,-2.296875 2.0625,-0.890625 4.6875,-0.890625 z"
         style="font-style:normal;font-variant:normal;font-weight:normal;font-stretch:normal;font-size:96px;font-family:'Droid Sans';-inkscape-font-specification:'Droid Sans';fill:#ffffff;fill-opacity:1"
         id="path846" />
      <path
         d="m 524.91992,90.283365 q -5.15625,0 -9.42187,-1.734375 -4.26563,-1.734375 -7.35938,-5.0625 -3.04687,-3.328125 -4.73437,-8.25 -1.6875,-4.921875 -1.6875,-11.25 0,-6.375 1.54687,-11.390625 1.54688,-5.015625 4.35938,-8.484375 2.8125,-3.515625 6.70312,-5.34375 3.9375,-1.828125 8.67188,-1.828125 4.64062,0 8.34375,1.6875 3.70312,1.640625 6.28125,4.6875 2.57812,3 3.9375,7.265625 1.40625,4.21875 1.40625,9.375 v 5.296875 h -32.4375 q 0.23437,9.046875 3.79687,13.3125 3.60938,4.265625 10.6875,4.265625 2.39063,0 4.40625,-0.234375 2.0625,-0.234375 3.9375,-0.65625 1.92188,-0.46875 3.70313,-1.125 1.78125,-0.703125 3.60937,-1.546875 v 7.59375 q -1.875,0.890625 -3.70312,1.546875 -1.78125,0.65625 -3.70313,1.078125 -1.875,0.421875 -3.9375,0.609375 -2.01562,0.1875 -4.40625,0.1875 z M 522.81055,44.01774 q -5.34375,0 -8.48438,3.65625 -3.09375,3.65625 -3.60937,10.640625 h 23.0625 q 0,-3.1875 -0.65625,-5.8125 -0.60938,-2.671875 -1.96875,-4.546875 -1.3125,-1.875 -3.375,-2.90625 -2.0625,-1.03125 -4.96875,-1.03125 z"
         style="font-style:normal;font-variant:normal;font-weight:normal;font-stretch:normal;font-size:96px;font-family:'Droid Sans';-inkscape-font-specification:'Droid Sans';fill:#ffffff;fill-opacity:1"
         id="path848" />
      <path
         d="m 586.74805,75.23649 q 0,3.75 -1.35938,6.5625 -1.35937,2.8125 -3.9375,4.734375 -2.53125,1.875 -6.14062,2.8125 -3.60938,0.9375 -8.10938,0.9375 -5.10937,0 -8.76562,-0.84375 -3.65625,-0.796875 -6.42188,-2.390625 v -7.78125 q 1.45313,0.75 3.23438,1.5 1.78125,0.703125 3.75,1.265625 1.96875,0.5625 4.03125,0.9375 2.10937,0.328125 4.17187,0.328125 3.04688,0 5.15625,-0.515625 2.15625,-0.515625 3.46875,-1.453125 1.35938,-0.984375 1.96875,-2.34375 0.60938,-1.40625 0.60938,-3.09375 0,-1.453125 -0.46875,-2.625 -0.46875,-1.171875 -1.73438,-2.296875 -1.21875,-1.171875 -3.375,-2.34375 -2.15625,-1.171875 -5.53125,-2.625 -3.375,-1.453125 -6.09375,-2.859375 -2.67187,-1.40625 -4.54687,-3.140625 -1.875,-1.734375 -2.90625,-3.984375 -0.98438,-2.296875 -0.98438,-5.4375 0,-3.28125 1.26563,-5.8125 1.3125,-2.578125 3.65625,-4.3125 2.34375,-1.734375 5.625,-2.625 3.28125,-0.890625 7.3125,-0.890625 4.54687,0 8.29687,0.984375 3.79688,0.984375 7.17188,2.578125 l -2.95313,6.890625 q -3.04687,-1.359375 -6.28125,-2.34375 -3.1875,-1.03125 -6.51562,-1.03125 -4.78125,0 -7.07813,1.59375 -2.29687,1.546875 -2.29687,4.453125 0,1.640625 0.51562,2.859375 0.5625,1.21875 1.875,2.296875 1.3125,1.078125 3.51563,2.203125 2.20312,1.078125 5.48437,2.4375 3.375,1.40625 6,2.8125 2.67188,1.40625 4.54688,3.1875 1.875,1.734375 2.85937,3.984375 0.98438,2.25 0.98438,5.390625 z"
         style="font-style:normal;font-variant:normal;font-weight:normal;font-stretch:normal;font-size:96px;font-family:'Droid Sans';-inkscape-font-specification:'Droid Sans';fill:#ffffff;fill-opacity:1"
         id="path850" />
      <path
         d="m 600.43555,89.345865 v -68.53125 h 8.71875 v 60.75 h 26.85937 v 7.78125 z"
         style="font-style:normal;font-variant:normal;font-weight:normal;font-stretch:normal;font-size:96px;font-family:'Droid Sans';-inkscape-font-specification:'Droid Sans';fill:#ffffff;fill-opacity:1"
         id="path852" />
      <path
         d="m 675.5293,89.345865 -1.73438,-7.125 h -0.375 q -1.54687,2.109375 -3.09375,3.65625 -1.54687,1.5 -3.375,2.484375 -1.82812,0.984375 -4.07812,1.453125 -2.25,0.46875 -5.20313,0.46875 -3.23437,0 -5.95312,-0.9375 -2.71875,-0.890625 -4.73438,-2.765625 -1.96875,-1.921875 -3.09375,-4.78125 -1.125,-2.90625 -1.125,-6.84375 0,-7.6875 5.39063,-11.8125 5.4375,-4.125 16.5,-4.5 l 8.625,-0.328125 V 55.08024 q 0,-3.140625 -0.70313,-5.25 -0.65625,-2.109375 -1.96875,-3.375 -1.26562,-1.3125 -3.1875,-1.875 -1.875,-0.5625 -4.3125,-0.5625 -3.89062,0 -7.26562,1.125 -3.32813,1.125 -6.42188,2.71875 l -3,-6.421875 q 3.46875,-1.875 7.73438,-3.1875 4.26562,-1.3125 8.95312,-1.3125 4.78125,0 8.25,0.984375 3.51563,0.9375 5.76563,3.046875 2.29687,2.0625 3.42187,5.296875 1.125,3.234375 1.125,7.828125 v 35.25 z M 659.87305,83.39274 q 2.85937,0 5.29687,-0.890625 2.4375,-0.890625 4.21875,-2.671875 1.78125,-1.828125 2.76563,-4.546875 1.03125,-2.765625 1.03125,-6.46875 V 64.17399 l -6.70313,0.328125 q -4.21875,0.1875 -7.07812,0.9375 -2.85938,0.75 -4.59375,2.109375 -1.6875,1.3125 -2.4375,3.234375 -0.75,1.875 -0.75,4.265625 0,4.3125 2.25,6.328125 2.29687,2.015625 6,2.015625 z"
         style="font-style:normal;font-variant:normal;font-weight:normal;font-stretch:normal;font-size:96px;font-family:'Droid Sans';-inkscape-font-specification:'Droid Sans';fill:#ffffff;fill-opacity:1"
         id="path854" />
    </g>
  </g>
</svg>
