<?xml version="1.0" encoding="UTF-8" standalone="no"?>
<!-- Created with Inkscape (http://www.inkscape.org/) -->

<svg
   xmlns:dc="http://purl.org/dc/elements/1.1/"
   xmlns:cc="http://creativecommons.org/ns#"
   xmlns:rdf="http://www.w3.org/1999/02/22-rdf-syntax-ns#"
   xmlns:svg="http://www.w3.org/2000/svg"
   xmlns="http://www.w3.org/2000/svg"
   xmlns:sodipodi="http://sodipodi.sourceforge.net/DTD/sodipodi-0.dtd"
   xmlns:inkscape="http://www.inkscape.org/namespaces/inkscape"
   width="2009.5299"
   height="420.04218"
   viewBox="0 0 531.6881 111.13616"
   version="1.1"
   id="svg8"
   inkscape:version="0.92.1 r15371"
   sodipodi:docname="presla-logo-black.svg">
  <defs
     id="defs2" />
  <sodipodi:namedview
     id="base"
     pagecolor="#ffffff"
     bordercolor="#666666"
     borderopacity="1.0"
     inkscape:pageopacity="0.0"
     inkscape:pageshadow="2"
     inkscape:zoom="0.35"
     inkscape:cx="924.79655"
     inkscape:cy="29.022508"
     inkscape:document-units="px"
     inkscape:current-layer="layer1"
     showgrid="false"
     units="px"
     fit-margin-top="0"
     fit-margin-left="0"
     fit-margin-right="0"
     fit-margin-bottom="0"
     inkscape:window-width="1920"
     inkscape:window-height="1027"
     inkscape:window-x="-8"
     inkscape:window-y="-8"
     inkscape:window-maximized="1" />
  <metadata
     id="metadata5">
    <rdf:RDF>
      <cc:Work
         rdf:about="">
        <dc:format>image/svg+xml</dc:format>
        <dc:type
           rdf:resource="http://purl.org/dc/dcmitype/StillImage" />
        <dc:title></dc:title>
        <cc:license
           rdf:resource="http://creativecommons.org/licenses/by-nc/4.0/" />
      </cc:Work>
      <cc:License
         rdf:about="http://creativecommons.org/licenses/by-nc/4.0/">
        <cc:permits
           rdf:resource="http://creativecommons.org/ns#Reproduction" />
        <cc:permits
           rdf:resource="http://creativecommons.org/ns#Distribution" />
        <cc:requires
           rdf:resource="http://creativecommons.org/ns#Notice" />
        <cc:requires
           rdf:resource="http://creativecommons.org/ns#Attribution" />
        <cc:prohibits
           rdf:resource="http://creativecommons.org/ns#CommercialUse" />
        <cc:permits
           rdf:resource="http://creativecommons.org/ns#DerivativeWorks" />
      </cc:License>
    </rdf:RDF>
  </metadata>
  <g
     inkscape:label="Layer 1"
     inkscape:groupmode="layer"
     id="layer1"
     transform="translate(-0.41579356,-190.28194)">
    <path
       id="path3747"
       d="m 50.606622,192.03599 c -3.312577,0 -7.076939,1.45537 -9.285325,5.27011 -2.40916,4.01522 -3.136992,9.13463 -1.12908,13.5514 0,0.40216 -0.87868,-0.37637 -0.87868,1.63125 -0.402159,2.00761 0.828599,4.81832 1.631097,6.02297 0.40216,0.40217 1.229242,0.85288 1.631248,1.25505 0,0 0.8286,3.56358 3.638858,6.7757 0.402159,2.40916 -2.384121,4.01536 -2.384121,4.01536 -8.030435,1.20497 -15.33319,5.24491 -16.9394,9.66168 h 51.445718 c -1.606208,-4.41707 -8.908964,-8.45747 -16.939399,-9.66197 0,0 -3.613817,-0.8028 -2.00776,-4.01538 2.00776,-2.40916 3.237304,-5.59624 3.638857,-6.39934 0,0 3.262497,-2.43419 3.262497,-5.64646 0,-3.61368 -0.878679,-3.63886 -0.878679,-3.63886 1.20496,-3.61367 1.606056,-17.16523 -8.030588,-15.55916 -0.602481,-1.80683 -3.463122,-3.26235 -6.775699,-3.26235 z m 40.152632,32.1222 c -3.326387,0 -6.022826,2.69645 -6.022826,6.02282 0,3.32639 2.696439,6.02299 6.022826,6.02299 1.14274,0 2.226293,-0.32477 3.136993,-0.87868 0.55847,0.67228 1.000087,1.35672 1.380999,2.13311 0.861987,1.75827 1.238347,3.98152 1.381,6.7757 H 4.4310108 c -2.4091607,3.1e-4 -4.01521724,1.60651 -4.01521724,4.01567 v 8.03044 l 8.03043574,12.04581 h 9.2853227 l -1.631096,-9.6617 c -0.40216,-1.20496 0.8028,-2.38411 2.007608,-2.38411 h 69.012333 c 1.20496,0 2.409161,1.17915 2.007609,2.38411 l -1.631097,9.6617 h 9.285323 l 8.030438,-12.04581 v -8.03044 c 0,-2.40916 -1.60607,-4.01536 -4.01523,-4.01536 h -0.12141 c -0.1639,-3.27738 -0.678347,-6.07686 -1.882087,-8.53246 -0.619177,-1.26414 -1.434118,-2.44588 -2.384125,-3.51335 0.215496,-0.61917 0.376361,-1.31424 0.376361,-2.00762 0,-3.32637 -2.696592,-6.02282 -6.022979,-6.02282 z m -67.8831,36.13743 c -1.20496,0 -2.007609,1.17915 -2.007609,2.38395 l 4.893595,33.75345 h 53.327821 l 5.269955,-33.75345 c 0.40216,-1.20495 -0.802802,-2.38395 -2.007609,-2.38395 z"
       inkscape:connector-curvature="0"
       style="stroke-width:4.01526833" />
    <g
       aria-label="Presla"
       transform="matrix(1.4939538,0,0,1.4939538,-490.55123,161.99935)"
       style="font-style:normal;font-weight:normal;font-size:40px;line-height:1.25;font-family:sans-serif;letter-spacing:0px;word-spacing:0px;fill:#000000;fill-opacity:1;stroke:none"
       id="flowRoot3758">
      <path
         d="m 457.88867,43.165742 q 0,4.640625 -1.64062,8.625 -1.59375,3.9375 -4.5,6.84375 -3.60938,3.609375 -8.53125,5.4375 -4.92188,1.78125 -12.42188,1.78125 h -9.28125 v 26.015625 h -9.28125 V 22.071992 h 18.9375 q 6.28125,0 10.64063,1.078125 4.35937,1.03125 7.73437,3.28125 3.98438,2.671875 6.14063,6.65625 2.20312,3.984375 2.20312,10.078125 z m -9.65625,0.234375 q 0,-3.609375 -1.26562,-6.28125 -1.26563,-2.671875 -3.84375,-4.359375 -2.25,-1.453125 -5.15625,-2.0625 -2.85938,-0.65625 -7.26563,-0.65625 h -9.1875 v 27.890625 h 7.82813 q 5.625,0 9.14062,-0.984375 3.51563,-1.03125 5.71875,-3.234375 2.20313,-2.25 3.09375,-4.734375 0.9375,-2.484375 0.9375,-5.578125 z"
         style="font-style:normal;font-variant:normal;font-weight:normal;font-stretch:normal;font-size:96px;font-family:'Droid Sans';-inkscape-font-specification:'Droid Sans'"
         id="path5617" />
      <path
         d="m 502.13867,49.118867 h -0.46875 q -1.96875,-0.46875 -3.84375,-0.65625 -1.82812,-0.234375 -4.35937,-0.234375 -4.07813,0 -7.875,1.828125 -3.79688,1.78125 -7.3125,4.640625 v 37.171875 h -8.8125 V 39.509492 h 8.8125 v 7.734375 q 5.25,-4.21875 9.23437,-5.953125 4.03125,-1.78125 8.20313,-1.78125 2.29687,0 3.32812,0.140625 1.03125,0.09375 3.09375,0.421875 z"
         style="font-style:normal;font-variant:normal;font-weight:normal;font-stretch:normal;font-size:96px;font-family:'Droid Sans';-inkscape-font-specification:'Droid Sans'"
         id="path5619" />
      <path
         d="M 554.35742,66.603242 H 515.7793 q 0,4.828125 1.45312,8.4375 1.45313,3.5625 3.98438,5.859375 2.4375,2.25 5.76562,3.375 3.375,1.125 7.40625,1.125 5.34375,0 10.73438,-2.109375 5.4375,-2.15625 7.73437,-4.21875 h 0.46875 v 9.609375 q -4.45312,1.875 -9.09375,3.140625 -4.64062,1.265625 -9.75,1.265625 -13.03125,0 -20.34375,-7.03125 -7.3125,-7.078125 -7.3125,-20.0625 0,-12.84375 6.98438,-20.390625 7.03125,-7.546875 18.46875,-7.546875 10.59375,0 16.3125,6.1875 5.76562,6.1875 5.76562,17.578125 z m -8.57812,-6.75 q -0.0469,-6.9375 -3.51563,-10.734375 -3.42187,-3.796875 -10.45312,-3.796875 -7.07813,0 -11.29688,4.171875 -4.17187,4.171875 -4.73437,10.359375 z"
         style="font-style:normal;font-variant:normal;font-weight:normal;font-stretch:normal;font-size:96px;font-family:'Droid Sans';-inkscape-font-specification:'Droid Sans'"
         id="path5621" />
      <path
         d="m 605.12305,76.775117 q 0,7.171875 -5.95313,11.765625 -5.90625,4.59375 -16.17187,4.59375 -5.8125,0 -10.6875,-1.359375 -4.82813,-1.40625 -8.10938,-3.046875 v -9.890625 h 0.46875 q 4.17188,3.140625 9.28125,5.015625 5.10938,1.828125 9.79688,1.828125 5.8125,0 9.09375,-1.875 3.28125,-1.875 3.28125,-5.90625 0,-3.09375 -1.78125,-4.6875 -1.78125,-1.59375 -6.84375,-2.71875 -1.875,-0.421875 -4.92188,-0.984375 -3,-0.5625 -5.48437,-1.21875 -6.89063,-1.828125 -9.79688,-5.34375 -2.85937,-3.5625 -2.85937,-8.71875 0,-3.234375 1.3125,-6.09375 1.35937,-2.859375 4.07812,-5.109375 2.625,-2.203125 6.65625,-3.46875 4.07813,-1.3125 9.09375,-1.3125 4.6875,0 9.46875,1.171875 4.82813,1.125 8.01563,2.765625 v 9.421875 h -0.46875 q -3.375,-2.484375 -8.20313,-4.171875 -4.82812,-1.734375 -9.46875,-1.734375 -4.82812,0 -8.15625,1.875 -3.32812,1.828125 -3.32812,5.484375 0,3.234375 2.01562,4.875 1.96875,1.640625 6.375,2.671875 2.4375,0.5625 5.4375,1.125 3.04688,0.5625 5.0625,1.03125 6.14063,1.40625 9.46875,4.828125 3.32813,3.46875 3.32813,9.1875 z"
         style="font-style:normal;font-variant:normal;font-weight:normal;font-stretch:normal;font-size:96px;font-family:'Droid Sans';-inkscape-font-specification:'Droid Sans'"
         id="path5623" />
      <path
         d="m 626.68555,91.868867 h -8.8125 v -72.9375 h 8.8125 z"
         style="font-style:normal;font-variant:normal;font-weight:normal;font-stretch:normal;font-size:96px;font-family:'Droid Sans';-inkscape-font-specification:'Droid Sans'"
         id="path5625" />
      <path
         d="m 684.5293,91.868867 h -8.76563 v -5.578125 q -1.17187,0.796875 -3.1875,2.25 -1.96875,1.40625 -3.84375,2.25 -2.20312,1.078125 -5.0625,1.78125 -2.85937,0.75 -6.70312,0.75 -7.07813,0 -12,-4.6875 -4.92188,-4.6875 -4.92188,-11.953125 0,-5.953125 2.53125,-9.609375 2.57813,-3.703125 7.3125,-5.8125 4.78125,-2.109375 11.48438,-2.859375 6.70312,-0.75 14.39062,-1.125 v -1.359375 q 0,-3 -1.07812,-4.96875 -1.03125,-1.96875 -3,-3.09375 -1.875,-1.078125 -4.5,-1.453125 -2.625,-0.375 -5.48438,-0.375 -3.46875,0 -7.73437,0.9375 -4.26563,0.890625 -8.8125,2.625 h -0.46875 v -8.953125 q 2.57812,-0.703125 7.45312,-1.546875 4.875,-0.84375 9.60938,-0.84375 5.53125,0 9.60937,0.9375 4.125,0.890625 7.125,3.09375 2.95313,2.15625 4.5,5.578125 1.54688,3.421875 1.54688,8.484375 z M 675.76367,78.978242 V 64.400117 q -4.03125,0.234375 -9.51562,0.703125 -5.4375,0.46875 -8.625,1.359375 -3.79688,1.078125 -6.14063,3.375 -2.34375,2.25 -2.34375,6.234375 0,4.5 2.71875,6.796875 2.71875,2.25 8.29688,2.25 4.64062,0 8.48437,-1.78125 3.84375,-1.828125 7.125,-4.359375 z"
         style="font-style:normal;font-variant:normal;font-weight:normal;font-stretch:normal;font-size:96px;font-family:'Droid Sans';-inkscape-font-specification:'Droid Sans'"
         id="path5627" />
    </g>
  </g>
</svg>
